<?xml version="1.0" encoding="UTF-8" standalone="no"?>
<!-- Created with Inkscape (http://www.inkscape.org/) -->

<svg
   width="482.54465mm"
   height="343.2001mm"
   viewBox="0 0 482.54465 343.2001"
   version="1.1"
   id="svg5"
   inkscape:version="1.1.2 (0a00cf5339, 2022-02-04, custom)"
   sodipodi:docname="Support question.svg"
   xmlns:inkscape="http://www.inkscape.org/namespaces/inkscape"
   xmlns:sodipodi="http://sodipodi.sourceforge.net/DTD/sodipodi-0.dtd"
   xmlns="http://www.w3.org/2000/svg"
   xmlns:svg="http://www.w3.org/2000/svg">
  <sodipodi:namedview
     id="namedview7"
     pagecolor="#ffffff"
     bordercolor="#666666"
     borderopacity="1.0"
     inkscape:pageshadow="2"
     inkscape:pageopacity="0.0"
     inkscape:pagecheckerboard="0"
     inkscape:document-units="mm"
     showgrid="false"
     fit-margin-top="20"
     fit-margin-left="20"
     fit-margin-right="20"
     fit-margin-bottom="20"
     lock-margins="true"
     inkscape:zoom="0.51906082"
     inkscape:cx="635.76365"
     inkscape:cy="201.32516"
     inkscape:window-width="3840"
     inkscape:window-height="2081"
     inkscape:window-x="-9"
     inkscape:window-y="-9"
     inkscape:window-maximized="1"
     inkscape:current-layer="layer1" />
  <defs
     id="defs2" />
  <g
     inkscape:label="Calque 1"
     inkscape:groupmode="layer"
     id="layer1"
     transform="translate(208.99551,-404.13405)">
    <path
       id="path1847"
       style="fill:none;stroke:#ff0000;stroke-width:0.755909"
       d="m 443.88477,93.997402 0,851.262368 h 92.59765 v 162.51953 c 0.12639,43.1184 -10.05131,113.7398 37.79688,113.3848 h 1043.1484 c 44.9177,-0.1416 39.4232,-70.3156 37.795,-113.3848 V 945.25977 h 92.5996 V 96.040824 c -0.1809,-19.328558 1.065,-20.072074 -18.4063,-20.072074 H 457.04534 c -13.37403,0.08427 -13.40139,0.501109 -13.16057,18.028652 z"
       transform="matrix(0.26458333,0,0,0.26458333,-208.99551,404.13405)"
       sodipodi:nodetypes="ccccccccccccc" />
    <path
       id="rect950-0"
       style="fill:none;stroke:#ff0000;stroke-width:0.2"
       d="m -115.89586,425.18447 h -42.99995 c -9.99762,0 -30.07113,-0.0354 -29.9997,9.99991 v 276.0002 c -0.10587,10.19194 16.57525,9.91904 29.9997,9.99991 h 42.99995 z"
       sodipodi:nodetypes="ccccccc" />
  </g>
</svg>
