<?xml version="1.0" encoding="UTF-8" standalone="no"?>
<svg
   xmlns:dc="http://purl.org/dc/elements/1.1/"
   xmlns:cc="http://creativecommons.org/ns#"
   xmlns:rdf="http://www.w3.org/1999/02/22-rdf-syntax-ns#"
   xmlns:svg="http://www.w3.org/2000/svg"
   xmlns="http://www.w3.org/2000/svg"
   xmlns:sodipodi="http://sodipodi.sourceforge.net/DTD/sodipodi-0.dtd"
   xmlns:inkscape="http://www.inkscape.org/namespaces/inkscape"
   version="1.1"
   id="svg879"
   width="540"
   height="935"
   viewBox="0 0 540 935"
   sodipodi:docname="lego.svg"
   inkscape:version="1.0.2 (e86c8708, 2021-01-15)">
  <metadata
     id="metadata885">
    <rdf:RDF>
      <cc:Work
         rdf:about="">
        <dc:format>image/svg+xml</dc:format>
        <dc:type
           rdf:resource="http://purl.org/dc/dcmitype/StillImage" />
        <dc:title></dc:title>
      </cc:Work>
    </rdf:RDF>
  </metadata>
  <defs
     id="defs883" />
  <sodipodi:namedview
     pagecolor="#ffffff"
     bordercolor="#666666"
     borderopacity="1"
     objecttolerance="10"
     gridtolerance="10"
     guidetolerance="10"
     inkscape:pageopacity="0"
     inkscape:pageshadow="2"
     inkscape:window-width="1440"
     inkscape:window-height="900"
     id="namedview881"
     showgrid="false"
     inkscape:zoom="0.39832296"
     inkscape:cx="447.73383"
     inkscape:cy="707.59818"
     inkscape:window-x="0"
     inkscape:window-y="0"
     inkscape:window-maximized="0"
     inkscape:current-layer="g887" />
  <g
     inkscape:groupmode="layer"
     inkscape:label="Image"
     id="g887">
    <path
       style="fill:#000000"
       d="m 171.34684,892.57149 c -2.94473,-0.8841 -4.6271,-3.3467 -3.78517,-5.5407 0.46609,-1.2147 1.9235,-1.636 5.65915,-1.636 2.76726,0 5.03138,-0.45 5.03138,-1 0,-0.55 -1.73026,-1 -3.84501,-1 -5.96004,0 -7.65499,-2.5634 -7.65499,-11.5772 0,-9.8563 1.75256,-11.8044 10.73871,-11.937 10.15861,-0.1498 9.97063,-0.4354 9.58923,14.5713 -0.31394,12.3525 -0.43879,13.0139 -2.92536,15.4978 -2.76185,2.7588 -8.46367,3.926 -12.80794,2.6218 z m 10.7947,-3.9267 c 1.77188,-1.4689 2.13672,-2.9545 2.2716,-9.25 0.0884,-4.125 0.0883,-9.5395 -1.2e-4,-12.0323 l -0.16082,-4.5324 -6.40073,-0.1897 c -7.28705,-0.216 -8.05643,0.334 -9.0706,6.4837 -1.41165,8.56 1.80404,12.8721 9.01274,12.0857 3.70777,-0.4044 4.42492,2.2187 1.42636,5.2173 -1.69055,1.6905 -2.87275,2.0206 -5.4835,1.5308 -1.83057,-0.3435 -3.5912,-0.1991 -3.91252,0.3209 -1.56286,2.5287 9.31879,2.8521 12.31759,0.366 z m -8.68934,-11.45 c -1.68623,-1.6862 -1.51676,-9.2922 0.23953,-10.7498 0.79174,-0.6571 2.70424,-1.0497 4.25,-0.8724 2.64914,0.3037 2.82813,0.6325 3.11812,5.7276 0.32442,5.7001 -0.50685,7.0506 -4.35765,7.0793 -1.1275,0.01 -2.59,-0.5247 -3.25,-1.1847 z m 5.3,-5.3 c 0,-4.521 -2.80601,-6.2619 -4.00486,-2.4847 -1.04033,3.2778 0.27508,7.1756 2.29059,6.7875 1.27594,-0.2457 1.71427,-1.3459 1.71427,-4.3028 z m -119.999999,12.2922 c -3.60983,-2.0702 -4.43581,-4.1627 -4.4682,-11.3196 -0.037,-8.1802 1.30672,-10.7691 6.47476,-12.4747 7.80904,-2.5772 13.81354,1.9166 13.29029,9.9466 l -0.29685,4.5555 -5.81604,0.3019 c -7.33159,0.3805 -7.41396,2.6981 -0.0959,2.6981 4.56162,0 4.9337,0.1878 5.21706,2.633 0.25275,2.181 -0.24496,2.8247 -2.89922,3.75 -4.07286,1.4198 -8.83806,1.3819 -11.4059,-0.091 z m 12.26318,-3.5687 c 0.31791,-0.9635 -0.58098,-1.1163 -3.66557,-0.6231 -4.75008,0.7596 -7.09761,-0.6371 -7.09761,-4.2228 0,-2.2392 0.34907,-2.3776 6,-2.3776 5.77433,0 6,-0.097 6,-2.5657 0,-2.7855 -1.64568,-6.4977 -3.3997,-7.6689 -0.60517,-0.4041 -2.77027,-0.7416 -4.81134,-0.75 -5.5001,-0.023 -7.78896,2.9014 -7.78896,9.9507 0,8.2828 1.71422,10.2064 8.76078,9.8312 3.41428,-0.1819 5.74474,-0.7929 6.0024,-1.5738 z m -10.04912,-9.8427 c -2.62746,-2.6275 0.8814,-6.9501 4.83601,-5.9575 2.0925,0.5251 2.51728,1.1561 2.26299,3.3616 -0.2545,2.2073 -0.88092,2.7708 -3.349,3.0125 -1.66977,0.1636 -3.35727,-0.024 -3.75,-0.4166 z m 4.48594,-3.5808 c -0.93333,-0.9333 -1.46667,-0.9333 -2.4,0 -0.93333,0.9334 -0.66667,1.2 1.2,1.2 1.86667,0 2.13333,-0.2666 1.2,-1.2 z m 16.59464,16.6515 c -2.94423,-1.5982 -4.77959,-6.419 -4.78906,-12.579 -0.003,-1.9985 -0.67922,-4.1866 -1.50558,-4.8725 -1.83147,-1.5199 -1.91885,-3.4184 -0.23834,-5.1785 0.69392,-0.7268 1.80927,-2.559 2.47857,-4.0715 1.74955,-3.9537 6.02339,-3.8365 7.54966,0.2071 0.65482,1.7348 1.96224,3.0781 3.16314,3.25 1.38911,0.1988 2.14758,1.1655 2.36003,3.0081 0.25394,2.2024 -0.17094,2.8366 -2.25,3.3584 -2.30774,0.5792 -2.56306,1.1239 -2.56306,5.4684 0,4.5205 0.17367,4.8452 2.75,5.1416 2.1976,0.2529 2.8163,0.8973 3.08008,3.2079 0.52543,4.6029 -4.41684,6.1098 -10.03544,3.06 z m 8.20536,-2.4324 c 0,-0.5395 -1.13687,-1.2663 -2.52638,-1.615 -3.28428,-0.8243 -4.47362,-3.1972 -4.47362,-8.9252 0,-4.2512 0.25879,-4.7503 3,-5.785 3.73891,-1.4112 3.8305,-2.4655 0.25,-2.8774 -2.15997,-0.2486 -2.81789,-0.9065 -3.06642,-3.0665 -0.39887,-3.4665 -3.18358,-3.7286 -3.18358,-0.2996 0,1.3476 -0.77813,2.8857 -1.72919,3.418 -1.63891,0.9171 -1.63891,1.0674 0,2.8784 1.19357,1.3189 1.72919,3.5985 1.72919,7.3595 0,7.0272 1.89968,9.8937 6.5567,9.8937 1.89382,0 3.4433,-0.4414 3.4433,-0.9809 z m 19.258649,1.527 c -2.58702,-2.2253 -2.75865,-2.8743 -2.75865,-10.4317 0,-9.7772 1.87878,-12.5689 8.45866,-12.5689 3.89458,0 3.95261,-0.055 4.24495,-4.0227 0.2455,-3.3321 0.69214,-4.0789 2.60143,-4.3495 4.52968,-0.6421 5.19496,1.146 5.19496,13.9628 0,7.7415 0.43366,12.5855 1.24271,13.881 0.92002,1.4732 0.95693,2.4434 0.14213,3.7364 -0.86876,1.3787 -2.70833,1.7907 -8.73405,1.956 -6.75955,0.1855 -7.94933,-0.062 -10.39214,-2.1634 z m 15.91993,-14.4418 c -0.17678,-7.4824 -0.70007,-13.9925 -1.16286,-14.4671 -1.58264,-1.6229 -3.01572,0.4784 -3.01572,4.4219 v 3.9409 h -4.42857 c -2.57682,0 -5.04749,0.619 -5.90875,1.4802 -2.95254,2.9526 -3.22536,13.7927 -0.43436,17.2583 0.64521,0.8011 3.51749,1.191 8.13453,1.1042 l 7.13715,-0.1342 z m -11.60715,10.3243 c -1.00145,-1.0014 -1.57143,-3.3507 -1.57143,-6.4769 0,-4.093 0.40297,-5.1696 2.43294,-6.4997 1.89255,-1.24 2.89207,-1.3484 4.5,-0.4879 1.72244,0.9219 2.06706,2.0674 2.06706,6.8711 0,3.1707 -0.54,6.3048 -1.2,6.9648 -1.66087,1.6609 -4.35705,1.5001 -6.22857,-0.3714 z m 5.23336,-6.1696 c -0.22705,-3.5318 -0.74202,-4.824 -2.01906,-5.0664 -1.14528,-0.2174 -1.92807,0.5264 -2.35841,2.241 -0.9906,3.9469 0.27543,7.5664 2.64652,7.5664 1.80425,0 2.00108,-0.5391 1.73095,-4.741 z m 16.21492,11.4566 c -3.80211,-1.9238 -5.14437,-5.4259 -4.76535,-12.4332 0.26337,-4.8692 0.84916,-6.7636 2.70091,-8.7347 5.24559,-5.5837 14.99775,-3.7742 17.07792,3.1688 0.63795,2.1293 1.00397,4.9767 0.81336,6.3275 -0.31672,2.2447 -0.8471,2.482 -6.16259,2.7579 -7.33159,0.3805 -7.41397,2.6981 -0.0959,2.6981 4.55708,0 4.91194,0.1785 4.91194,2.4705 0,4.4047 -8.71962,6.6598 -14.48029,3.7451 z m 11.70917,-3.4022 c 0.23675,-0.7102 -1.15619,-0.9068 -4.08601,-0.5766 -3.83301,0.4321 -4.60716,0.1985 -5.62105,-1.696 -2.01781,-3.7703 -0.64501,-5.0408 5.4468,-5.0408 h 5.53138 v -3.6712 c 0,-2.0192 -0.74474,-4.4942 -1.65499,-5.5 -2.05879,-2.275 -8.05362,-2.4216 -11.1225,-0.2721 -1.92553,1.3487 -2.22251,2.4638 -2.22251,8.3451 0,7.4007 1.27117,9.5811 6,10.2915 3.22287,0.4841 7.2689,-0.5 7.72888,-1.8799 z m -10.33727,-10.7352 c -0.30009,-0.782 -0.0307,-2.384 0.59865,-3.5599 2.1646,-4.0446 9.33987,-0.9269 7.70027,3.3458 -0.80494,2.0977 -7.50976,2.2706 -8.29892,0.2141 z m 5.60839,-2.0191 c 0,-1.0555 -1.91911,-1.4989 -2.48992,-0.5754 -0.34546,0.559 0.0734,1.0163 0.9309,1.0163 0.85746,0 1.55902,-0.1984 1.55902,-0.4409 z m 50.92308,14.5179 c -2.66217,-2.6622 -2.92308,-3.5349 -2.92308,-9.7775 0,-7.9915 1.38585,-10.6116 6.50656,-12.3016 7.80904,-2.5772 13.81354,1.9166 13.29029,9.9466 l -0.29685,4.5555 -5.75,0.2999 c -3.1625,0.165 -5.75,0.7275 -5.75,1.25 0,1.0304 0.48786,1.1296 6.5,1.3221 3.53752,0.1132 4.03528,0.4325 4.30513,2.761 0.25274,2.181 -0.24497,2.8247 -2.89923,3.75 -5.67322,1.9777 -9.76883,1.408 -12.98282,-1.806 z m 13.8401,-1.8535 c 0.31791,-0.9635 -0.58098,-1.1163 -3.66558,-0.6231 -4.75007,0.7596 -7.0976,-0.6371 -7.0976,-4.2228 0,-2.2449 0.3421,-2.3776 6.13167,-2.3776 h 6.13167 l -0.56534,-4.2149 c -0.31248,-2.3297 -1.35139,-4.7897 -2.3228,-5.5 -1.89765,-1.3876 -8.18517,-1.7152 -9.9755,-0.5197 -3.54716,2.3685 -4.67223,12.9728 -1.80992,17.0594 1.38223,1.9734 2.31844,2.2309 7.171,1.9725 3.41428,-0.1819 5.74474,-0.7929 6.0024,-1.5738 z m -10.04912,-9.8427 c -2.62746,-2.6275 0.8814,-6.9501 4.83601,-5.9575 2.0925,0.5251 2.51728,1.1562 2.26299,3.3616 -0.2545,2.2073 -0.88092,2.7708 -3.349,3.0125 -1.66977,0.1636 -3.35727,-0.024 -3.75,-0.4166 z m 4.48594,-3.5808 c -0.93333,-0.9333 -1.46667,-0.9333 -2.4,0 -0.93333,0.9334 -0.66667,1.2 1.2,1.2 1.86667,0 2.13333,-0.2666 1.2,-1.2 z m 11.91435,16.3144 c -2.49876,-2.4988 -2.6201,-3.4497 -0.64894,-5.0857 0.95563,-0.7931 2.86897,-0.979 5.5,-0.5345 5.29903,0.8953 5.17256,-0.6615 -0.20514,-2.525 -11.14448,-3.8618 -6.22,-17.2518 5.69012,-15.4718 2.17271,0.3247 4.5155,1.0594 5.20619,1.6326 1.72066,1.428 3.11322,0.3567 4.80754,-3.6983 1.05676,-2.5292 2.05211,-3.4317 3.78485,-3.4317 2.80447,0 4.75103,1.7208 4.75103,4.2 0,1.0942 0.73621,1.8 1.87756,1.8 1.03265,0 2.41388,0.6463 3.06939,1.4361 1.61188,1.9422 -0.32928,5.5639 -2.98213,5.5639 -1.66402,0 -1.96482,0.6938 -1.96482,4.5314 0,3.4426 0.42048,4.6616 1.75,5.073 0.9625,0.2979 2.5375,0.9626 3.5,1.4771 1.59886,0.8547 1.75,0.2438 1.75,-7.073 0,-6.5051 0.35296,-8.3614 1.88027,-9.8887 1.84037,-1.8404 1.84037,-1.9145 0,-3.4902 -3.39652,-2.9082 -1.77538,-7.6296 2.61973,-7.6296 4.15304,0 6.18602,5.3559 3.02788,7.9769 -1.29616,1.0757 -1.29616,1.3977 0,2.6939 2.12454,2.1245 2.11214,21.5532 -0.0149,23.3185 -1.97472,1.6388 -6.51299,0.4565 -6.51299,-1.6969 0,-1.3896 -0.34181,-1.3026 -2.03896,0.5191 -2.25302,2.4183 -4.45079,2.7132 -8.56445,1.1492 -3.91995,-1.4903 -5.1568,-3.6661 -5.94651,-10.4607 -0.76584,-6.5891 -2.7438,-10.7829 -3.79441,-8.045 -0.41152,1.0724 -2.05563,1.5771 -5.37429,1.6499 l -4.78138,0.1049 3.88539,1.2032 c 7.27823,2.2539 9.63282,8.1292 5.28405,13.185 -1.87849,2.1838 -3.40812,2.7988 -7.88565,3.1701 -4.69227,0.3891 -5.8835,0.1322 -7.66944,-1.6537 z m 13.91558,-2.6504 c 0.60859,-0.7333 0.96333,-2.8252 0.7883,-4.6486 -0.28775,-2.9978 -0.76902,-3.4508 -5.02396,-4.7288 -5.03912,-1.5136 -6.57173,-3.4449 -4.60978,-5.8089 0.87751,-1.0573 2.30885,-1.2945 5.10944,-0.8467 2.91355,0.466 3.78489,0.3016 3.47009,-0.6544 -0.23762,-0.7216 -2.39859,-1.4069 -4.97092,-1.5764 -5.38214,-0.3546 -7.7931,1.4684 -7.7931,5.8927 0,3.0705 1.40561,4.105 7.29282,5.3677 3.31671,0.7114 4.44562,2.9447 2.60783,5.1592 -0.99753,1.2019 -2.37842,1.4495 -5.61187,1.0063 -3.30349,-0.4527 -4.28878,-0.2636 -4.28878,0.8235 0,2.5281 10.93369,2.5402 13.02993,0.014 z m 18.97007,0.6339 c 0,-0.4962 -1.2845,-1.35 -2.85445,-1.8973 -2.9574,-1.0309 -4.14555,-4.0052 -4.14555,-10.3776 0,-2.3532 0.58815,-3.132 3,-3.9728 3.58932,-1.2512 3.93994,-2.8502 0.625,-2.8502 -1.83889,0 -2.51044,-0.6771 -2.975,-3 -0.73845,-3.6922 -3.65,-4.1307 -3.65,-0.5496 0,1.3476 -0.77813,2.8857 -1.72919,3.418 -1.63891,0.9171 -1.63891,1.0674 0,2.8784 1.19357,1.3189 1.72919,3.5985 1.72919,7.3595 0,7.0272 1.89968,9.8937 6.5567,9.8937 1.89382,0 3.4433,-0.4059 3.4433,-0.9021 z m 9.31464,-3.3768 c 0.86777,-6.3311 -0.29965,-15.7211 -1.95454,-15.7211 -1.05613,0 -1.3601,2.235 -1.3601,10 0,7.7794 0.30291,10 1.36408,10 0.84819,0 1.58588,-1.6182 1.95056,-4.2789 z m 0.49499,-23.4711 c -0.18536,-0.9625 -0.99969,-1.75 -1.80963,-1.75 -0.80994,0 -1.62427,0.7875 -1.80963,1.75 -0.23646,1.2279 0.30348,1.75 1.80963,1.75 1.50615,0 2.04609,-0.5221 1.80963,-1.75 z m 8.2671,28.1612 c -2.92212,-2.4588 -3.07673,-2.9586 -3.07673,-9.9443 0,-6.2768 0.34425,-7.7555 2.34781,-10.0848 1.96578,-2.2854 3.18225,-2.7419 7.4759,-2.8058 4.27622,-0.064 5.57035,0.3658 7.79043,2.5847 3.17483,3.1732 4.2806,10.5979 2.4186,16.2399 -2.20931,6.6942 -11.23061,8.8279 -16.95601,4.0103 z m 13.19541,-2.1612 c 1.45398,-1.6082 2.19962,-6.4104 1.86326,-12 -0.21916,-3.6418 -3.6141,-6.25 -8.1354,-6.25 -5.92052,0 -8,2.5416 -8,9.7775 0,8.0214 1.70143,10.2225 7.90172,10.2225 3.29091,0 5.28306,-0.5472 6.37042,-1.75 z m -8.55587,-1.5 c -2.31588,-1.7376 -3.00705,-8.6572 -1.14812,-11.4943 1.83568,-2.8016 5.97308,-2.9814 7.39667,-0.3214 1.72555,3.2242 1.23352,8.8674 -0.96482,11.0657 -2.33726,2.3373 -3.03605,2.4365 -5.28373,0.75 z m 4.08852,-6.5 c -0.21945,-3.42 -0.72476,-4.75 -1.80479,-4.75 -0.97053,0 -1.61311,1.1808 -1.82046,3.3452 -0.40552,4.2331 0.32631,6.1548 2.34387,6.1548 1.26839,0 1.52511,-0.9516 1.28138,-4.75 z m 13.39521,11.55 c -0.72856,-0.7285 -1.2,-4.2696 -1.2,-9.0135 0,-4.2975 -0.52102,-8.6479 -1.15782,-9.6676 -2.07043,-3.3152 -0.38015,-5.1147 4.87698,-5.1919 2.62946,-0.039 6.75253,-0.1266 9.16237,-0.1953 6.91276,-0.1972 8.25842,2.1978 7.90283,14.0654 -0.23226,7.7519 -0.60498,9.6924 -2.03436,10.5917 -3.44055,2.1646 -5.21866,-0.3827 -5.55044,-7.9515 -0.32912,-7.5083 -1.57,-10.2046 -3.83224,-8.3271 -0.90663,0.7524 -1.36732,3.3846 -1.36732,7.8123 0,6.7794 -1.01266,9.0775 -4,9.0775 -0.88,0 -2.14,-0.54 -2.8,-1.2 z m 4.8,-9.1 c 0,-7.7127 0.92193,-9.7 4.5,-9.7 3.58611,0 4.5,1.9849 4.5,9.7734 0,6.4827 0.21137,7.333 1.75,7.0394 1.43712,-0.2743 1.79591,-1.5836 2.00678,-7.3234 0.15602,-4.2469 -0.24993,-7.9703 -1.0346,-9.4894 -1.19752,-2.3183 -1.83387,-2.5044 -8.75677,-2.5612 -4.10598,-0.034 -7.80774,0.1084 -8.22613,0.3157 -0.4184,0.2072 -0.0809,1.3474 0.75,2.5337 1.01165,1.4443 1.51072,4.561 1.51072,9.4343 0,5.8023 0.30408,7.2775 1.5,7.2775 1.19635,0 1.5,-1.4777 1.5,-7.3 z m 34.22275,7.8152 c -2.54468,-2.1888 -2.72275,-2.869 -2.72275,-10.4008 0,-9.7772 1.87878,-12.5689 8.45866,-12.5689 3.89458,0 3.95261,-0.055 4.24495,-4.0227 0.2455,-3.3321 0.69214,-4.0789 2.60143,-4.3495 4.52549,-0.6416 5.19496,1.15 5.19496,13.9021 0,6.7681 0.49082,12.9078 1.14702,14.348 1.87129,4.107 -0.006,5.266 -8.67272,5.3558 -6.51817,0.067 -7.89428,-0.2363 -10.25155,-2.264 z m 15.95583,-14.4109 c -0.17678,-7.4824 -0.70007,-13.9925 -1.16286,-14.4671 -1.58264,-1.6229 -3.01572,0.4784 -3.01572,4.4219 v 3.9409 h -4.42857 c -2.57682,0 -5.04749,0.619 -5.90876,1.4802 -2.95253,2.9526 -3.22535,13.7927 -0.43435,17.2583 0.64521,0.8011 3.51749,1.191 8.13453,1.1042 l 7.13715,-0.1342 z m -11.60715,10.3243 c -1.00145,-1.0014 -1.57143,-3.3507 -1.57143,-6.4769 0,-4.093 0.40297,-5.1696 2.43294,-6.4997 1.89255,-1.24 2.89207,-1.3484 4.5,-0.4879 1.72244,0.9219 2.06706,2.0674 2.06706,6.8711 0,3.1707 -0.54,6.3048 -1.2,6.9648 -1.66087,1.6609 -4.35705,1.5001 -6.22857,-0.3714 z m 5.23336,-6.1696 c -0.22705,-3.5318 -0.74202,-4.824 -2.01906,-5.0664 -1.14528,-0.2174 -1.92807,0.5264 -2.35841,2.241 -0.9906,3.9469 0.27543,7.5664 2.64652,7.5664 1.80425,0 2.00108,-0.5391 1.73095,-4.741 z m 16.49757,11.7293 c -5.70609,-2.298 -7.24334,-16.2288 -2.36396,-21.4227 6.9501,-7.398 18.71751,-1.9685 17.86838,8.2446 l -0.30678,3.6898 -5.81604,0.3019 c -7.33159,0.3805 -7.41397,2.6981 -0.0959,2.6981 4.55708,0 4.91194,0.1785 4.91194,2.4705 0,4.2043 -8.06622,6.487 -14.19764,4.0178 z m 11.43651,-3.7049 c 0.24651,-0.7395 -0.91849,-0.9348 -3.50576,-0.5878 -4.26472,0.572 -7.5894,-1.5899 -7.02334,-4.5669 0.23494,-1.2356 1.69495,-1.701 6.04995,-1.9286 5.99042,-0.3129 6.29198,-0.6112 5.76249,-5.7001 -0.56124,-5.3939 -8.8898,-7.6324 -13.02221,-3.5 -2.7242,2.7242 -2.89593,13.8894 -0.25,16.2539 3.01668,2.6957 11.09351,2.7156 11.98887,0.03 z m -10.34726,-10.7052 c -0.30009,-0.782 -0.0307,-2.384 0.59865,-3.5599 2.1646,-4.0446 9.33987,-0.9269 7.70027,3.3458 -0.80494,2.0977 -7.50976,2.2706 -8.29892,0.2141 z m 5.60839,-2.0191 c 0,-1.0555 -1.91911,-1.4989 -2.48992,-0.5754 -0.34546,0.559 0.0734,1.0163 0.9309,1.0163 0.85746,0 1.55902,-0.1984 1.55902,-0.4409 z m 26.40499,15.337 c -1.6184,-1.7874 -1.95726,-4.0265 -2.25242,-14.8837 -0.37769,-13.8926 0.38933,-17.0124 4.18261,-17.0124 4.10321,0 4.66482,1.704 4.66482,14.153 0,6.7097 0.49219,12.8332 1.14702,14.2704 2.26947,4.9809 -3.8792,7.7389 -7.74203,3.4727 z m 4.96774,-2.6461 c -0.46268,-0.9625 -0.98584,-7.4875 -1.16258,-14.5 -0.2596,-10.3002 -0.59886,-12.75 -1.76574,-12.75 -1.18467,0 -1.44441,2.3231 -1.44441,12.9183 0,14.4002 0.33606,16.0817 3.21398,16.0817 1.55857,0 1.81432,-0.3862 1.15875,-1.75 z m 23.12727,3.8047 c -4.81695,-1.9716 -5.9817,-4.7334 -6.33983,-15.0332 -0.26186,-7.531 0.0288,-10.4862 1.26693,-12.8805 4.17539,-8.0743 17.91445,-8.1825 22.05597,-0.1737 1.01985,1.9722 1.51571,5.817 1.51319,11.7331 -0.005,12.9316 -3.32631,17.3994 -12.81136,17.2362 -2.02669,-0.035 -4.5849,-0.4317 -5.6849,-0.8819 z m 10.2074,-2.1025 c 4.48623,-1.5639 5.7926,-4.9664 5.7926,-15.0871 0,-8.1718 -0.19183,-9.0129 -2.60606,-11.4264 -3.70867,-3.7076 -11.07032,-3.7168 -14.76862,-0.019 -2.22148,2.2214 -2.63967,3.6337 -2.96115,9.9999 -0.48465,9.5975 1.03761,14.326 5.19438,16.1347 3.84949,1.675 5.48443,1.7445 9.34885,0.3974 z m -7.25423,-3.2132 c -3.09958,-1.6949 -3.42163,-2.7566 -3.43786,-11.334 -0.0125,-6.5851 0.32579,-8.4037 1.81343,-9.75 2.68165,-2.4268 7.72576,-2.1291 9.61456,0.5675 2.27712,3.2511 2.14694,15.8369 -0.1933,18.688 -2.10694,2.5669 -5.14388,3.2791 -7.79683,1.8285 z m 6.57158,-4.3041 c 0.53639,-1.4108 0.97525,-4.5315 0.97525,-6.9349 0,-6.4114 -1.44351,-9.5 -4.44007,-9.5 -3.3035,0 -4.55993,2.6176 -4.55993,9.5 0,6.8825 1.25643,9.5 4.55993,9.5 1.75226,0 2.7784,-0.7596 3.46482,-2.5651 z m 15.70064,9.3073 c -2.59175,-1.9686 -3.72539,-6.3006 -3.72539,-14.2358 0,-7.4735 1.299,-10.5064 4.5,-10.5064 3.2197,0 4.5,3.0286 4.5,10.6448 0,6.6053 0.20915,7.462 1.75,7.1677 1.45532,-0.2779 1.79914,-1.6352 2.04183,-8.0605 0.24442,-6.4711 0.60997,-7.8966 2.25,-8.7743 1.37127,-0.7339 2.55761,-0.7272 3.95817,0.022 1.75649,0.94 2,2.0938 2,9.4761 0,4.6232 0.45,8.6839 1,9.0239 0.84792,0.524 1.49233,5.3257 0.75,5.5884 -0.1375,0.049 -4.10634,0.2702 -8.81964,0.4922 -5.84508,0.2753 -9.08957,0.01 -10.20497,-0.8385 z m 17.27461,-2.7568 c 0,-0.3219 -0.42907,-1.0144 -0.9535,-1.5389 -0.52442,-0.5244 -1.08692,-4.5519 -1.25,-8.95 -0.23395,-6.3095 -0.61294,-7.9965 -1.7965,-7.9965 -1.17902,0 -1.56246,1.6566 -1.79191,7.7415 -0.27944,7.4107 -0.40354,7.7695 -2.90478,8.3973 -4.61325,1.1578 -5.77291,-0.5533 -6.09537,-8.9939 -0.2253,-5.8972 -0.62536,-7.6449 -1.75,-7.6449 -1.1668,0 -1.45794,1.7573 -1.45794,8.8 0,5.3105 0.45709,9.2571 1.15269,9.9527 1.16752,1.1675 16.84731,1.3841 16.84731,0.2327 z m 8.5,2.8068 c -1.1,-0.6308 -2.52746,-1.8546 -3.17212,-2.7196 -1.82932,-2.4543 -2.54046,-9.5694 -1.38524,-13.8595 1.5238,-5.659 4.1354,-7.5977 10.23481,-7.5977 4.34284,0 5.45131,0.4143 7.50889,2.8064 1.94056,2.256 2.35507,3.7154 2.11379,7.4423 l -0.30013,4.6359 -5.81604,0.3019 c -7.33159,0.3805 -7.41397,2.6981 -0.0959,2.6981 4.56162,0 4.9337,0.1878 5.21707,2.633 0.25274,2.181 -0.24497,2.8247 -2.89923,3.75 -4.07285,1.4198 -8.83806,1.3819 -11.4059,-0.091 z m 11.75,-2.4894 c 2.23968,-1.2565 0.19454,-2.1884 -3.64713,-1.6618 -3.94985,0.5414 -4.56893,0.3405 -6.08619,-1.9752 -0.92899,-1.4178 -1.39873,-3.0476 -1.04386,-3.6218 0.35487,-0.5742 3.31866,-1.044 6.5862,-1.044 5.71097,0 5.94098,-0.099 5.94098,-2.5657 0,-2.7855 -1.64568,-6.4977 -3.3997,-7.669 -2.27665,-1.5201 -8.5796,-0.786 -10.6003,1.2347 -2.51468,2.5147 -2.82182,12.3817 -0.48908,15.7122 1.9663,2.8073 9.004,3.686 12.73908,1.5906 z m -9.94053,-11.9387 c -0.89716,-2.3379 1.01949,-4.8641 3.69053,-4.8641 2.67104,0 4.58769,2.5262 3.69053,4.8641 -0.39211,1.0219 -1.77746,1.6359 -3.69053,1.6359 -1.91307,0 -3.29842,-0.614 -3.69053,-1.6359 z m 4.89053,-2.5641 c -0.93333,-0.9333 -1.46667,-0.9333 -2.4,0 -0.93333,0.9334 -0.66667,1.2 1.2,1.2 1.86667,0 2.13333,-0.2666 1.2,-1.2 z m 11.78921,16.3667 c -3.48679,-2.8594 -1.73803,-5.6306 3.63489,-5.76 6.03847,-0.1454 6.1915,-0.3945 1.3759,-2.2395 -7.02344,-2.6908 -8.85601,-9.2725 -3.84454,-13.8079 2.38842,-2.1614 11.79465,-2.4755 14.206,-0.4742 1.86443,1.5473 3.37977,0.3824 5.37876,-4.1351 1.92237,-4.3442 8.25978,-3.2851 8.25978,1.3805 0,1.0332 0.9066,1.8592 2.25,2.05 1.76232,0.2503 2.25,0.9698 2.25,3.3195 0,2.3699 -0.48344,3.0686 -2.30167,3.3264 -2.07946,0.2948 -2.27255,0.7775 -2,5 0.25669,3.9768 0.63748,4.7213 2.55386,4.9935 2.60604,0.3701 4.51496,3.3204 3.63392,5.6163 -1.41978,3.6999 -10.62258,2.6173 -13.229,-1.5562 -0.72978,-1.1686 -1.57964,-4.6571 -1.88858,-7.7523 -0.63798,-6.3918 -2.74163,-10.6643 -3.84063,-7.8004 -0.4633,1.2074 -1.9336,1.7019 -5.28489,1.7776 l -4.64301,0.1048 3.88539,1.2033 c 7.27823,2.2539 9.63282,8.1292 5.28405,13.1849 -3.22706,3.7517 -11.95374,4.6248 -15.68023,1.5688 z m 13.39837,-2.4608 c 1.24313,-0.909 1.67202,-2.3226 1.44113,-4.75 -0.3021,-3.1761 -0.72836,-3.5823 -5.26607,-5.018 -5.33763,-1.6887 -6.48469,-3.1219 -4.45544,-5.567 0.95917,-1.1558 2.30805,-1.4002 5.18673,-0.9399 2.91355,0.466 3.78489,0.3016 3.47009,-0.6544 -0.23762,-0.7216 -2.39859,-1.4069 -4.97092,-1.5764 -5.38214,-0.3546 -7.7931,1.4684 -7.7931,5.8927 0,3.0705 1.40561,4.105 7.29282,5.3677 3.31636,0.7113 4.44567,2.9447 2.60838,5.1585 -0.97049,1.1694 -2.46433,1.4649 -5.61187,1.1101 -3.21007,-0.3618 -4.28933,-0.137 -4.28933,0.8937 0,1.8217 9.91891,1.8881 12.38758,0.083 z m 19.61242,0.392 c 0,-0.4962 -1.32348,-1.3636 -2.94107,-1.9275 -2.2254,-0.7758 -3.09323,-1.8362 -3.56632,-4.3581 -1.19226,-6.3552 0.27788,-10.8123 3.56641,-10.8123 1.06754,0 1.94098,-0.45 1.94098,-1 0,-0.55 -1.13625,-1 -2.525,-1 -2.00556,0 -2.64843,-0.6171 -3.125,-3 -0.72358,-3.6179 -3.35,-4.0488 -3.35,-0.5496 0,1.3476 -0.77813,2.8857 -1.72919,3.418 -1.63891,0.9171 -1.63891,1.0674 0,2.8784 1.19357,1.3189 1.72919,3.5985 1.72919,7.3595 0,7.0272 1.89968,9.8937 6.5567,9.8937 1.89382,0 3.4433,-0.4059 3.4433,-0.9021 z m -120.66417,-18.6651 c -0.33077,-0.8619 -0.10235,-2.0662 0.50759,-2.6762 0.77982,-0.7798 0.79645,-1.4856 0.056,-2.3777 -1.81683,-2.1892 -0.60866,-5.7653 2.29081,-6.7808 3.56844,-1.2497 5.80975,0.6366 5.80975,4.8895 0,5.8816 -6.93814,11.4432 -8.66417,6.9452 z m 6.66417,-7.1239 c 0,-1.5722 -0.58491,-2.3089 -1.83333,-2.3089 -2.7135,0 -2.97272,0.6662 -1.7633,4.5314 0.97806,3.1258 1.23179,3.32 2.34663,1.7956 0.6875,-0.9401 1.25,-2.7482 1.25,-4.0181 z M 57.347981,834.01019 c -0.78323,-0.9437 -1.06102,-6.2427 -0.87245,-16.6424 0.24041,-13.2584 0.50601,-15.4024 2.02667,-16.3603 1.27359,-0.8023 2.22641,-0.8028 3.5,0 1.4644,0.9209 1.8316,3.1233 2.25,13.4949 l 0.5,12.3943 5.46969,0.3099 c 3.00832,0.1704 6.04582,0.788 6.75,1.3724 0.99282,0.8241 1.28031,0.3779 1.28031,-1.9871 0,-3.8847 3.97277,-7.1951 8.63486,-7.1951 1.85083,0 3.36514,-0.4725 3.36514,-1.05 0,-0.6251 -1.86749,-0.9287 -4.61413,-0.75 -5.67968,0.3693 -7.91578,-1.8519 -5.05096,-5.0175 3.44431,-3.8059 14.45818,-3.3061 16.63149,0.7548 1.12948,2.1104 3.315489,19.7976 2.5916,20.9689 -0.26224,0.4243 -4.25387,0.8266 -8.8703,0.894 -6.88686,0.1006 -8.74886,-0.2085 -10.37316,-1.7217 -1.92457,-1.7931 -2.01235,-1.792 -3.15556,0.039 -1.00797,1.614 -2.44271,1.8829 -10.04501,1.8829 -6.33513,0 -9.19739,-0.3955 -10.01819,-1.3846 z m 15.40422,-1.4935 c 4.85923,-1.0391 3.0122,-2.5837 -3.73305,-3.1219 l -6.26695,-0.5 -0.28038,-12.8174 c -0.25149,-11.4969 -0.45755,-12.7835 -2,-12.4875 -1.51376,0.2904 -1.75278,2.026 -1.99666,14.4984 l -0.27703,14.1685 2.77703,0.4192 c 4.11509,0.6212 8.39814,0.5632 11.77704,-0.1593 z m 25.49942,-0.8128 c 3.2e-4,-0.6551 -0.44942,-1.4691 -0.99942,-1.8091 -0.55,-0.3399 -1,-3.5935 -1,-7.2302 0,-8.0307 -1.54211,-10.2698 -7.0732,-10.2698 -4.37895,0 -6.9268,0.8074 -6.9268,2.1949 0,0.586 1.56812,0.716 3.89425,0.323 3.29564,-0.5568 4.12947,-0.3221 5.42456,1.5269 2.22852,3.1817 1.14033,4.6434 -3.87793,5.209 -2.44188,0.2753 -5.11503,1.0609 -5.94033,1.7458 -2.19005,1.8176 -1.88202,6.6198 0.53312,8.3115 2.57114,1.8009 15.96488,1.7992 15.96575,0 z m -12.74942,-0.9713 c -1.70716,-0.6889 -1.57916,-4.8197 0.19496,-6.2921 2.30222,-1.9107 6.0063,-0.8895 6.3818,1.7594 0.56322,3.973 -2.58555,6.1432 -6.57676,4.5327 z m 4.75,-3.3378 c 0,-0.55 -0.9,-1 -2,-1 -1.1,0 -2,0.45 -2,1 0,0.55 0.9,1 2,1 1.1,0 2,-0.45 2,-1 z m 11.562239,7.229 c -0.91172,-0.9118 -0.64294,-4.7483 0.40615,-5.7973 0.53262,-0.5327 1.09512,-6.8102 1.25,-13.95 0.27545,-12.6975 0.33207,-12.9888 2.58665,-13.3084 3.24937,-0.4607 5.19496,1.5291 5.19496,5.3128 0,3.1381 0.13305,3.2412 4.18037,3.2412 3.06454,0 4.64274,0.571 5.91258,2.1392 3.85116,4.756 3.50153,16.63 -0.61077,20.7423 -2.01526,2.0152 -3.24501,2.2815 -10.32275,2.2351 -4.41923,-0.029 -8.28796,-0.3057 -8.59719,-0.6149 z m 18.06646,-3.7359 c 0.84048,-1.1494 1.3713,-4.4833 1.3713,-8.6128 0,-8.3244 -1.40752,-10.1715 -7.39339,-9.7022 l -4.10661,0.3219 -0.5,-4.5 c -0.34568,-3.1111 -0.96296,-4.5 -2,-4.5 -1.2297,0 -1.59386,2.3426 -2.02085,13 -0.28646,7.15 -0.67725,13.45 -0.86842,14 -0.64998,1.8701 -0.1126,2.0189 7.01797,1.9437 5.76102,-0.061 7.39179,-0.435 8.5,-1.9506 z m -9.43054,-1.3494 c -0.90406,-0.5735 -1.20961,-2.7841 -1,-7.2347 0.30137,-6.3989 0.30682,-6.4094 3.4854,-6.7174 4.10402,-0.3975 5.73722,2.3829 5.03888,8.5786 -0.63049,5.5936 -3.70995,7.7929 -7.52428,5.3735 z m 4.60701,-7.0562 c 0.26783,-4.6124 0.0843,-5.2135 -1.5,-4.9131 -1.29586,0.2457 -1.8945,1.4276 -2.1218,4.1891 -0.38052,4.6229 0.37206,6.9497 2.06716,6.3911 0.73197,-0.2412 1.37586,-2.5884 1.55464,-5.6671 z m 14.27156,10.3237 c -2.91021,-2.4488 -3.07673,-2.978 -3.07673,-9.7776 0,-8.4449 1.40625,-11.0995 6.64628,-12.5463 8.32689,-2.2992 13.48852,1.6282 14.14949,10.7661 0.46111,6.3748 -1.31248,11.2824 -4.74038,13.117 -3.63724,1.9466 -9.67414,1.2213 -12.97866,-1.5592 z m 12.31679,-1.6612 c 2.43592,-2.1879 2.9804,-4.6008 2.7078,-12 -0.24405,-6.624 -9.84088,-9.4391 -14.02874,-4.1151 -2.30683,2.9326 -2.86837,11.0097 -1.00721,14.4873 2.21177,4.1327 8.60017,4.9763 12.32815,1.6278 z m -7.91668,-2.1432 c -2.2902,-1.6747 -2.66004,-9.4762 -0.56868,-11.9961 1.83319,-2.2089 5.79865,-2.027 7.05666,0.3236 1.6991,3.1748 1.25528,9.5566 -0.79356,11.4108 -2.22937,2.0175 -3.23026,2.0635 -5.69442,0.2617 z m 4.32795,-6.3568 c -0.21945,-3.42 -0.72476,-4.75 -1.80479,-4.75 -0.97053,0 -1.61311,1.1808 -1.82046,3.3452 -0.40552,4.2331 0.32631,6.1548 2.34387,6.1548 1.26839,0 1.52511,-0.9516 1.28138,-4.75 z m 13.40161,11.4987 c -0.57117,-0.6882 -1.2691,-4.8507 -1.55097,-9.25 -0.28186,-4.3992 -0.65714,-9.3487 -0.83395,-10.9987 l -0.32148,-3 5.50772,-0.041 c 3.02925,-0.023 6.02898,-0.3634 6.66608,-0.7571 2.12157,-1.3112 6.3262,1.064 6.3262,3.5736 0,3.0974 -1.79114,4.7248 -5.2,4.7248 -2.75214,0 -2.8,0.1014 -2.8,5.9349 0,7.8487 -1.26529,11.0651 -4.3528,11.0651 -1.32127,0 -2.86963,-0.5631 -3.4408,-1.2513 z m 4.7936,-9.1161 c 0.53911,-8.3132 1.36891,-9.5901 6.25,-9.6172 1.77097,-0.01 2.75,-0.5494 2.75,-1.5154 0,-1.8258 -5.03625,-2.0637 -6.77979,-0.3202 -0.9064,0.9064 -1.76347,0.8675 -3.6985,-0.1681 -3.07124,-1.6437 -4.17778,-0.7809 -2.86528,2.2341 0.53971,1.2398 0.88571,5.1548 0.76887,8.6998 -0.23479,7.1238 0.25435,9.3255 1.94791,8.7681 0.64468,-0.2123 1.34072,-3.6698 1.62679,-8.0811 z m 13.60252,8.2694 c -1.99923,-1.5726 -2.60252,-2.9407 -2.60252,-5.902 0,-4.7253 3.53452,-8 8.63486,-8 1.85083,0 3.36514,-0.501 3.36514,-1.1135 0,-0.7507 -1.44571,-0.8967 -4.43707,-0.4482 -3.89784,0.5846 -4.57846,0.4013 -5.60039,-1.5083 -1.8284,-3.4163 1.53309,-6.1405 7.67916,-6.2231 9.04397,-0.1216 10.90163,2.6636 11.53407,17.2931 l 0.32423,7.5 -8.14748,0.2246 c -6.90756,0.1904 -8.54354,-0.087 -10.75,-1.8226 z m 17.39736,-1.5929 c 7e-5,-0.6551 -0.44988,-1.4691 -0.99988,-1.8091 -0.55,-0.3399 -1,-3.5935 -1,-7.2302 0,-8.0307 -1.54211,-10.2698 -7.0732,-10.2698 -4.37895,0 -6.9268,0.8074 -6.9268,2.1949 0,0.5831 1.55293,0.7186 3.82863,0.3341 4.08202,-0.6897 5.68987,0.3108 6.32635,3.9364 0.29197,1.6632 -0.42009,2.0782 -4.63147,2.6995 -2.97031,0.4382 -5.50697,1.4596 -6.29238,2.5337 -1.87137,2.5593 -1.116,6.5643 1.48083,7.8515 3.04016,1.507 15.28776,1.3138 15.28792,-0.241 z m -12.79988,-1.5091 c -2.85993,-2.8599 -0.22818,-7.2254 3.99496,-6.6267 4.22704,0.5992 3.19519,7.8267 -1.1174,7.8267 -0.92266,0 -2.21756,-0.54 -2.87756,-1.2 z m 4.8,-2.8 c 0,-0.55 -0.9,-1 -2,-1 -1.1,0 -2,0.45 -2,1 0,0.55 0.9,1 2,1 1.1,0 2,-0.45 2,-1 z m 16.42375,5.6881 c -2.44932,-2.1068 -2.86691,-3.284 -3.23924,-9.1313 -0.28432,-4.4652 -0.88899,-6.8899 -1.80597,-7.2417 -1.85297,-0.7111 -1.76075,-5.2312 0.12146,-5.9534 0.825,-0.3166 1.5,-1.3724 1.5,-2.3462 0,-4.499 6.97243,-5.4163 7.99548,-1.0519 0.36084,1.5394 1.49964,2.6812 3.03574,3.0438 4.35,1.0269 3.319,6.9926 -1.20846,6.9926 -1.67941,0 -1.89245,0.6165 -1.62755,4.7098 0.261,4.0331 0.65036,4.7906 2.71015,5.2727 5.94804,1.3922 5.08983,7.2858 -1.13886,7.8209 -2.58826,0.2223 -4.28163,-0.3424 -6.34275,-2.1153 z m 9.57625,-1.6963 c 0,-0.4262 -1.23299,-1.0844 -2.73998,-1.4626 -3.67823,-0.9232 -4.22675,-2.0491 -4.24471,-8.7127 -0.0144,-5.3359 0.13953,-5.703 2.51578,-6 3.15826,-0.3949 3.35018,-2.1363 0.3144,-2.8529 -1.35235,-0.3193 -2.50802,-1.534 -2.8541,-3 -0.75237,-3.1871 -3.38904,-3.189 -3.83857,0 -0.19094,1.3534 -1.09094,3.0088 -2,3.6785 -1.52843,1.1262 -1.52111,1.2689 0.0972,1.8962 1.33796,0.5187 1.75,1.8381 1.75,5.6036 0,6.5527 2.15942,11.5954 5.16527,12.0619 2.87212,0.4458 5.83473,-0.1682 5.83473,-1.2093 z m 6.83102,2.4787 c -3.46688,-1.8828 -5.24602,-7.3186 -4.48858,-13.714 0.68154,-5.7545 1.90107,-7.5411 6.44413,-9.4401 4.42514,-1.8497 10.56473,-0.236 12.94944,3.4035 2.11095,3.2217 2.33767,12.9054 0.38746,16.5494 -2.45981,4.5962 -9.86812,6.147 -15.29245,3.2012 z m 12.41898,-3.5843 c 2.6667,-3.2118 2.41218,-12.5524 -0.42431,-15.5717 -2.83101,-3.0135 -8.9636,-3.1765 -11.82569,-0.3145 -2.72556,2.7256 -2.89797,13.9078 -0.25,16.2146 3.86086,3.3633 9.55921,3.2137 12.5,-0.3284 z m -9.6933,-2.1087 c -2.01031,-2.8701 -2.002,-9.1893 0.0147,-11.206 3.8852,-3.8852 7.98076,-0.623 7.82905,6.236 -0.14668,6.6317 -4.67166,9.4989 -7.84378,4.97 z m 5.24809,-5.5275 c -0.21945,-3.42 -0.72476,-4.75 -1.80479,-4.75 -1.08003,0 -1.58534,1.33 -1.80479,4.75 -0.27347,4.2619 -0.088,4.75 1.80479,4.75 1.89281,0 2.07826,-0.4881 1.80479,-4.75 z m 12.39521,11.55 c -1.25742,-1.2574 -1.73729,-19.2362 -0.59301,-22.2182 0.88015,-2.2936 6.07485,-2.0448 7.35783,0.3525 1.31084,2.4493 1.35366,17.0979 0.0599,20.5006 -1.0599,2.7878 -4.67834,3.5116 -6.82475,1.3651 z m 4.58498,-11.6312 c 0.24099,-8.599 0.048,-10.1688 -1.25,-10.1688 -1.28328,0 -1.53498,1.7354 -1.53498,10.5834 0,8.0211 0.30263,10.4829 1.25,10.1688 0.86474,-0.2868 1.33784,-3.5487 1.53498,-10.5834 z m 7.2502,10.897 c -0.56935,-1.0639 -1.03518,-5.1434 -1.03518,-9.0658 0,-3.9223 -0.48123,-8.0306 -1.06939,-9.1296 -1.87396,-3.5015 0.3243,-4.6716 8.8397,-4.705 7.5968,-0.03 10.22969,0.8416 10.22969,3.3857 0,2.2403 -3.01407,4.4489 -6.07143,4.4489 h -2.92857 v 7.3 c 0,4.3445 -0.48584,7.7859 -1.2,8.5 -1.83712,1.8372 -5.60769,1.4279 -6.76482,-0.7342 z m 5.31826,-5.3158 c 0.27355,-2.8875 0.50567,-6.2984 0.51583,-7.5799 0.0262,-3.309 1.91724,-5.1701 5.25317,-5.1701 1.89116,0 2.87756,-0.5141 2.87756,-1.5 0,-1.7675 -3.24221,-1.9759 -6.19074,-0.3979 -1.53833,0.8233 -2.65968,0.7808 -4.43275,-0.1682 -2.91827,-1.5618 -4.21693,-0.5092 -2.58866,2.098 0.66668,1.0676 1.21215,5.2471 1.21215,9.2879 0,4.0408 0.3,7.6469 0.66667,8.0136 1.53623,1.5362 2.21707,0.3748 2.68677,-4.5834 z m 14.56964,4.327 c -2.59462,-2.5947 -2.92308,-3.6115 -2.92308,-9.0497 0,-8.2003 1.86554,-11.6447 7.06533,-13.0448 5.85788,-1.5774 10.94619,1.0215 12.73679,6.5054 2.09564,6.4182 0.55831,8.5121 -6.2493,8.5121 -4.44025,0 -5.38127,0.2835 -4.9212,1.4825 0.40928,1.0665 1.87324,1.4172 5.21862,1.25 4.39562,-0.2198 4.66705,-0.082 4.96614,2.5171 0.37304,3.242 -2.47161,4.7504 -8.9584,4.7504 -3.10079,0 -4.67562,-0.6638 -6.9349,-2.923 z m 11.51182,-0.052 c 3.96067,-1.5059 3.04596,-2.657 -2.05614,-2.5876 -4.94639,0.067 -7.24096,-1.7479 -6.06929,-4.8013 0.4765,-1.2417 1.96059,-1.6359 6.15915,-1.6359 h 5.53138 v -3.5 c 0,-7.1336 -8.34789,-10.243 -13.54545,-5.0454 -4.18236,4.1823 -3.02316,15.5789 1.78091,17.5089 3.0267,1.2159 5.12125,1.2316 8.19944,0.061 z m -7.76823,-11.6915 c -2.54288,-2.5428 1.55009,-7.034 5.31995,-5.8375 2.06267,0.6546 3.53092,3.8578 2.51891,5.4953 -0.6933,1.1218 -6.79301,1.3881 -7.83886,0.3422 z m 5.0625,-2.9375 c -0.33229,-0.3322 -1.1948,-0.3678 -1.91667,-0.079 -0.79773,0.3193 -0.56078,0.5562 0.60417,0.6042 1.05416,0.043 1.64479,-0.1929 1.3125,-0.5252 z m 26.70398,15.1281 c -2.14438,-2.1444 -2.43315,-3.322 -2.43315,-9.9228 0,-9.2502 2.2284,-12.7206 8.2781,-12.8921 3.47325,-0.098 3.7219,-0.3128 3.7219,-3.2073 0,-1.706 0.54,-3.6419 1.2,-4.3019 1.77263,-1.7726 5.59363,-1.4569 6.65608,0.55 0.50955,0.9625 1.08788,8.5 1.28519,16.75 l 0.35873,15 -8.31685,0.2286 c -7.63463,0.2099 -8.51644,0.029 -10.75,-2.2045 z m 17.32479,-1.2979 c 0.1912,-0.5736 -0.12612,-1.3357 -0.70515,-1.6936 -0.64534,-0.3988 -1.05279,-5.4427 -1.05279,-13.0326 0,-7.6908 -0.40407,-12.6317 -1.06653,-13.0411 -1.52505,-0.9425 -2.12371,-0.024 -2.43823,3.7389 -0.15179,1.8162 -0.32532,3.6397 -0.38561,4.0522 -0.0603,0.4125 -2.07953,0.75 -4.48719,0.75 -5.67382,0 -6.93993,1.6223 -7.44395,9.5379 -0.36096,5.6688 -0.14753,6.584 2.04713,8.7787 2.1565,2.1565 3.2131,2.4203 8.81739,2.2013 3.50201,-0.1368 6.52373,-0.7181 6.71493,-1.2917 z m -12.68792,-2.6418 c -0.69293,-0.8349 -1.05081,-3.8089 -0.87244,-7.25 0.29021,-5.5988 0.41838,-5.8476 3.17424,-6.1626 1.5795,-0.1805 3.34768,0.1477 3.92928,0.7293 1.3996,1.3996 1.81067,8.6747 0.66101,11.6986 -1.0393,2.7335 -4.97409,3.2957 -6.89209,0.9847 z m 4.73515,-6.4969 c 0.26783,-4.6124 0.0843,-5.2135 -1.5,-4.9131 -1.29586,0.2457 -1.89451,1.4276 -2.1218,4.1891 -0.38052,4.6229 0.37206,6.9497 2.06716,6.3911 0.73197,-0.2413 1.37586,-2.5884 1.55464,-5.6671 z m 26.11791,9.9894 c -2.59629,-2.5962 -2.92308,-3.6097 -2.92308,-9.0657 0,-8.2993 2.62816,-12.8582 7.5,-13.0098 1.83995,-0.057 1.85995,-0.1437 0.25,-1.0815 -2.31465,-1.3481 -2.20847,-4.6556 0.2805,-8.738 2.16875,-3.5572 4.50011,-3.8905 6.36232,-0.9095 0.86926,1.3915 0.63269,2.6003 -1.10089,5.6253 -2.28639,3.9895 -2.13363,5.1023 0.70042,5.1023 3.87982,0 8.01761,8.2426 6.51478,12.9776 -0.54875,1.7289 -1.49831,2.0224 -6.54313,2.0224 -4.9074,0 -5.80153,0.2599 -5.30921,1.5428 0.46029,1.1995 1.52289,1.4032 4.77591,0.9154 3.04731,-0.457 4.5126,-0.2314 5.39386,0.8304 2.83379,3.4146 -1.57091,6.7114 -8.96658,6.7114 -3.10079,0 -4.67562,-0.6638 -6.9349,-2.923 z m 10.95192,0.2981 c 4.88853,-0.9777 3.85318,-3.0105 -1.49624,-2.9378 -4.94639,0.067 -7.24096,-1.7479 -6.06929,-4.8012 0.4765,-1.2418 1.96059,-1.636 6.15915,-1.636 h 5.53138 v -3.5 c 0,-4.5493 -2.90711,-7.5 -7.38922,-7.5 -5.14195,0 -7.78392,2.7169 -8.32745,8.5636 -0.90113,9.6934 2.8862,13.5525 11.59167,11.8114 z m -7.20833,-12.0416 c -2.54288,-2.5429 1.55009,-7.0341 5.31995,-5.8376 2.06267,0.6547 3.53092,3.8578 2.51891,5.4953 -0.6933,1.1218 -6.79301,1.3881 -7.83886,0.3423 z m 5.0625,-2.9375 c -0.33229,-0.3323 -1.1948,-0.3678 -1.91667,-0.079 -0.79773,0.3192 -0.56078,0.5562 0.60417,0.6041 1.05416,0.043 1.64479,-0.1929 1.3125,-0.5252 z m -0.34418,-13.8607 c 1.96317,-2.9962 2.00518,-3.5352 0.27553,-3.5352 -1.10238,0 -3.66052,3.8766 -3.66052,5.5471 0,1.3146 1.9742,0.1413 3.38499,-2.0119 z m 14.14966,29.0904 c -4.86424,-4.8642 -4.13366,-17.8765 1.19989,-21.3712 3.01591,-1.9761 10.54514,-2.0971 12.8237,-0.206 1.77272,1.4712 1.87918,4.5633 0.193,5.6054 -0.68682,0.4245 -2.82432,0.7885 -4.75,0.809 l -3.50124,0.037 v 5 5 h 3.87723 c 5.2806,0 7.15788,2.7759 3.76199,5.5627 -3.48701,2.8616 -10.53226,2.6352 -13.60457,-0.4371 z m 10.21535,-0.2558 c 3.62858,-0.9725 2.7304,-3.0242 -1.12674,-2.5739 -4.19827,0.4901 -6.62326,-2.4457 -6.62326,-8.0184 0,-5.4208 2.88874,-8.0761 7.78816,-7.1588 3.37696,0.6324 3.58802,0.5456 2.3394,-0.9618 -0.83805,-1.0117 -2.85402,-1.6569 -5.17742,-1.6569 -5.49193,0 -7.95014,3.4205 -7.95014,11.0623 0,5.0667 0.33016,6.0523 2.63486,7.8652 2.75127,2.1641 4.35678,2.4495 8.11514,1.4423 z m 9.17308,-0.2928 c -2.58442,-2.5844 -2.92308,-3.6217 -2.92308,-8.953 0,-9.6598 3.00011,-13.524 10.5,-13.524 7.49989,0 10.5,3.8642 10.5,13.524 0,5.3313 -0.33866,6.3686 -2.92308,8.953 -2.3933,2.3933 -3.76653,2.923 -7.57692,2.923 -3.81039,0 -5.18362,-0.5297 -7.57692,-2.923 z m 12.08173,-0.5794 c 3.29924,-1.7061 4.62689,-6.1846 3.64738,-12.3034 -0.72068,-4.502 -3.77138,-7.1942 -8.15219,-7.1942 -4.89061,0 -7.60214,2.7266 -8.22729,8.2729 -1.12134,9.9485 4.91278,15.2682 12.7321,11.2247 z m -7.43338,-3.069 c -1.88558,-1.8856 -2.14584,-10.4541 -0.37143,-12.2286 0.66,-0.66 2.145,-1.2 3.3,-1.2 3.32353,0 4.5,2.0039 4.5,7.6649 0,4.1817 -0.39792,5.4777 -1.93426,6.3 -2.62788,1.4063 -3.65158,1.3064 -5.49431,-0.5363 z m 5.2468,-5.2521 c 0.39051,-4.0582 -1.43549,-6.739 -3.45091,-5.0663 -1.42048,1.1789 -1.89255,7.0313 -0.66608,8.2577 1.64374,1.6438 3.81358,-0.038 4.11699,-3.1914 z m 12.21695,9.8893 c -0.56935,-1.0639 -1.03518,-5.1434 -1.03518,-9.0658 0,-3.9223 -0.48123,-8.0306 -1.06939,-9.1296 -1.70187,-3.18 0.49776,-4.8541 6.43764,-4.8995 2.82246,-0.022 6.70548,-0.048 8.62892,-0.059 5.91229,-0.033 7.12117,2.548 6.78614,14.49 -0.27173,9.6854 -0.37751,10.1114 -2.58835,10.4248 -4.09475,0.5805 -5.19496,-1.4207 -5.19496,-9.4492 0,-6.7109 -0.18073,-7.3776 -2,-7.3776 -1.81735,0 -2,0.6667 -2,7.3 0,4.3445 -0.48584,7.7859 -1.2,8.5 -1.83712,1.8372 -5.60769,1.4279 -6.76482,-0.7342 z m 4.96482,-7.237 c 0,-7.5653 1.51666,-10.8288 5.03254,-10.8288 3.04536,0 4.26317,2.7477 4.11148,9.2764 -0.15042,6.4743 0.84064,9.4692 2.74418,8.2927 1.79128,-1.107 1.447,-17.091 -0.40808,-18.9461 -1.9099,-1.9099 -16.47811,-1.8498 -16.47935,0.068 -4.2e-4,0.6551 0.44923,1.4691 0.99923,1.809 0.55,0.34 1,4.1165 1,8.3924 0,4.2759 0.3,8.0743 0.66667,8.441 1.74259,1.7426 2.33333,0.096 2.33333,-6.5046 z m 21.34526,6.7918 c -2.42719,-2.0878 -2.81421,-3.228 -3.15744,-9.3024 -0.35503,-6.2832 -0.15256,-7.2066 2.19091,-9.9917 2.99145,-3.5551 6.92721,-4.633 11.90166,-3.2595 5.00618,1.3823 6.71961,4.5632 6.71961,12.4748 0,5.9748 -0.28175,6.8938 -2.92308,9.5352 -3.87689,3.8769 -10.56939,4.1238 -14.73166,0.5436 z m 13.51949,-2.0567 c 0.87122,-0.8713 1.68452,-4.0094 1.9344,-7.4639 0.38816,-5.3663 0.17494,-6.2168 -2.13855,-8.5303 -2.98603,-2.986 -7.98864,-3.429 -11.43809,-1.013 -1.92345,1.3473 -2.22045,2.4574 -2.2072,8.25 0.008,3.6814 0.34592,7.1818 0.75,7.7788 2.40577,3.5544 9.95925,4.1186 13.09944,0.9784 z m -9.29332,-2.1353 c -1.79206,-1.792 -2.10771,-8.558 -0.53625,-11.4943 1.15713,-2.1621 4.9277,-2.5714 6.76482,-0.7343 0.66,0.66 1.2,3.5692 1.2,6.4649 0,4.1817 -0.39792,5.4777 -1.93426,6.3 -2.62788,1.4064 -3.65158,1.3064 -5.49431,-0.5363 z m 5.24679,-5.8187 c 0.37601,-4.5768 -1.00261,-6.5316 -3.27584,-4.645 -2.71763,2.2554 -1.63992,9.3887 1.33345,8.8259 1.09503,-0.2072 1.72784,-1.5693 1.94239,-4.1809 z m 12.84845,11.7235 c -0.36667,-0.3667 -0.66667,-4.3267 -0.66667,-8.8 0,-4.5122 -0.48293,-8.6163 -1.08466,-9.218 -0.59657,-0.5966 -0.93407,-2.1491 -0.75,-3.45 0.29339,-2.0737 0.88952,-2.3744 4.83466,-2.4391 2.475,-0.041 5.41032,-0.376 6.52293,-0.7453 1.11261,-0.3694 3.47511,-0.2551 5.25,0.2539 1.98126,0.5682 4.47745,0.5669 6.46597,0 4.31788,-1.2383 9.14406,0.4188 10.61377,3.6445 1.54282,3.3861 1.50303,18.6683 -0.0527,20.224 -1.83712,1.8372 -5.60769,1.4279 -6.76482,-0.7342 -0.56932,-1.0643 -1.03515,-4.9223 -1.03515,-8.5737 0,-5.7831 -0.22562,-6.5962 -1.75,-6.3061 -1.44053,0.2741 -1.83842,1.746 -2.25,8.3233 -0.46357,7.4082 -0.66792,8.0141 -2.80504,8.3171 -4.09475,0.5805 -5.19496,-1.4207 -5.19496,-9.4492 0,-6.7109 -0.18073,-7.3776 -2,-7.3776 -1.81735,0 -2,0.6667 -2,7.3 0,4.3445 -0.48584,7.7859 -1.2,8.5 -1.29351,1.2936 -5.04679,1.6199 -6.13333,0.5334 z m 4.33333,-8.1108 c 0,-7.262 1.714,-11.2226 4.8567,-11.2226 3.11373,0 4.14287,2.2149 4.15861,8.95 0.0287,12.2868 3.69521,12.3477 4.18586,0.07 0.28815,-7.2108 0.40057,-7.5137 3.14608,-8.476 4.14008,-1.4511 5.65275,1.1148 5.65275,9.5886 0,6.1958 1.10593,9.0954 2.81653,7.3846 1.22858,-1.2287 0.44864,-17.4923 -0.91783,-19.1388 -0.95015,-1.1448 -2.34914,-1.3952 -5.34294,-0.9562 -2.23067,0.3271 -4.95576,0.5703 -6.05576,0.5405 -1.1,-0.03 -5.4875,-0.1654 -9.75,-0.3014 -5.61394,-0.1791 -7.75,0.093 -7.75,0.987 0,0.6788 0.45,1.5123 1,1.8522 0.55,0.3399 1,4.1165 1,8.3923 0,4.2759 0.3,8.0744 0.66667,8.441 1.72567,1.7256 2.33333,0.1342 2.33333,-6.1108 z m 32.24298,7.6204 c -1.43231,-1.4323 -1.74286,-20.5061 -0.36916,-22.673 0.47892,-0.7555 2.09236,-1.1875 3.73469,-1 l 2.89149,0.33 v 12 12 l -2.50702,0.293 c -1.37887,0.1612 -3.06637,-0.2664 -3.75,-0.95 z m 4.542,-11.6742 c 0.23198,-8.2774 0.0194,-10.1688 -1.14301,-10.1688 -1.98616,0 -2.64197,2.2234 -2.64197,8.9568 0,15.1413 3.36442,16.2186 3.78498,1.212 z m 8.52078,10.4178 c -2.61434,-2.2487 -2.80576,-2.9294 -2.80576,-9.9772 0,-6.8769 0.24428,-7.8082 2.68939,-10.2533 2.14324,-2.1432 3.62787,-2.6894 7.31061,-2.6894 6.50253,0 9.84337,3.3765 9.93448,10.0406 l 0.0655,4.7927 -5.81604,0.3019 c -3.98695,0.207 -5.68361,0.6787 -5.39493,1.5 0.26565,0.7558 2.1061,1.0905 4.98545,0.9065 3.97275,-0.2538 4.65605,0 5.27196,1.938 1.78671,5.6294 -10.63625,8.261 -16.24068,3.4402 z m 10.56924,-0.2116 c 5.01929,-1.0038 3.94444,-3.2216 -1.27618,-2.6332 -3.78546,0.4267 -4.56567,0.1887 -5.577,-1.701 -2.01781,-3.7703 -0.64501,-5.0408 5.4468,-5.0408 h 5.53138 v -3.9433 c 0,-4.6094 -2.61189,-7.0567 -7.53138,-7.0567 -4.27727,0 -6.42543,1.8746 -7.47355,6.5219 -0.75785,3.3602 -0.0145,10.9514 1.16613,11.9085 2.94335,2.3861 5.22381,2.8426 9.7138,1.9446 z m -7.34665,-12.3291 c -1.16282,-1.8815 0.53218,-5.0229 3.05129,-5.6552 3.04084,-0.7632 5.61847,1.2233 5.21862,4.0218 -0.23036,1.6123 -1.13086,2.1569 -3.95536,2.3924 -2.0114,0.1676 -3.95295,-0.1739 -4.31455,-0.759 z m 5.20082,-2.65 c -0.33229,-0.3323 -1.1948,-0.3678 -1.91667,-0.079 -0.79773,0.3192 -0.56078,0.5562 0.60417,0.6041 1.05416,0.043 1.64479,-0.1929 1.3125,-0.5252 z m -184.51772,-9.1397 c -0.055,-6.1257 0.93574,-8.2562 3.83957,-8.2562 2.65723,0 4.94898,2.7491 4.94898,5.9366 0,3.6558 -3.52083,8.0634 -6.44105,8.0634 -2.12205,0 -2.29979,-0.4349 -2.3475,-5.7438 z m 6.57947,-3.1214 c -0.38604,-2.0269 -4.79092,-2.8584 -4.79092,-0.9043 0,0.7532 0.55123,1.9208 1.22496,2.5945 0.96661,0.9666 0.95542,1.6942 -0.053,3.45 -0.91844,1.599 -0.54533,1.4189 1.32618,-0.6402 1.4323,-1.5758 2.46407,-3.6008 2.29283,-4.5 z m -95.59092,2.6652 c -3.01433,-3.0143 -0.33962,-8.2545 3.89283,-7.6267 3.23927,0.4805 4.55441,3.1108 3.12451,6.2491 -1.27073,2.7889 -4.8946,3.5004 -7.01734,1.3776 z m 4.60963,-3.55 c -0.18536,-0.9625 -0.99969,-1.75 -1.80963,-1.75 -0.80994,0 -1.62427,0.7875 -1.80963,1.75 -0.23646,1.2279 0.30348,1.75 1.80963,1.75 1.50615,0 2.04609,-0.5221 1.80963,-1.75 z m 247.39037,3.55 c -0.66,-0.66 -1.2,-2.145 -1.2,-3.3 0,-4.3927 5.9596,-6.3125 7.96482,-2.5657 1.40639,2.6279 1.30648,3.6516 -0.53625,5.4943 -1.87152,1.8715 -4.5677,2.0323 -6.22857,0.3714 z m 4.60963,-3.55 c -0.18536,-0.9625 -0.99969,-1.75 -1.80963,-1.75 -0.80994,0 -1.62427,0.7875 -1.80963,1.75 -0.23646,1.2279 0.30348,1.75 1.80963,1.75 1.50615,0 2.04609,-0.5221 1.80963,-1.75 z m -39.07162,-36.32 c -16.79622,-2.2941 -29.95383,-11.3367 -37.0024,-25.43 -5.3841,-10.7652 -6.2416,-18.0599 -6.17146,-52.5 0.0595,-29.204 0.22353,-32.0768 2.25098,-39.4138 2.55138,-9.233 5.84259,-15.2368 11.90622,-21.7193 4.94554,-5.2872 15.13773,-10.9705 23.27865,-12.9805 7.10996,-1.7554 25.94412,-1.7465 33,0.016 13.24674,3.3083 25.97373,13.1105 31.28843,24.098 5.7834,11.9565 6.21191,15.5114 6.20784,51.5 -0.004,36.4134 -0.38912,39.4018 -6.68231,51.8686 -5.53487,10.9645 -17.97099,20.4228 -30.81396,23.4356 -6.90756,1.6204 -19.75623,2.151 -27.26199,1.1258 z m 22.26199,-2.9587 c 19.57098,-3.0518 34.18083,-17.4386 38.48433,-37.8968 2.13165,-10.1335 2.13505,-61.4727 0.005,-71.5745 -5.17002,-24.5146 -23.32884,-38.5 -49.98933,-38.5 -27.20546,0 -45.55325,14.5189 -50.01908,39.5808 -0.96898,5.4378 -1.42208,16.1034 -1.44603,34.0382 -0.0398,29.7774 1.17889,39.8524 6.05683,50.0732 8.97306,18.8014 31.20658,28.287 56.90828,24.2791 z m -20.56936,-22.9104 c -7.15614,-1.7122 -12.14251,-6.4366 -15.14378,-14.3482 -2.05234,-5.4101 -3.0787,-52.2857 -1.41541,-64.6449 2.27272,-16.8876 9.26479,-23.0678 26.09846,-23.0678 12.86596,0 20.95181,5.4615 24.28222,16.4011 0.88218,2.8977 1.24787,13.1836 1.24787,35.0989 0,35.2758 -0.4692,38.1347 -7.36362,44.8669 -5.90941,5.7704 -17.46284,8.1448 -27.70574,5.694 z m 20.11073,-3.9405 c 4.78607,-2.174 8.77419,-6.621 10.62269,-11.845 1.97509,-5.5816 1.91552,-65.3326 -0.0701,-70.2754 -1.94588,-4.8439 -7.76841,-10.7326 -12.03171,-12.1685 -5.77954,-1.9466 -16.15634,-1.4484 -21.25643,1.0205 -10.64049,5.151 -12.04107,11.1099 -11.61936,49.4357 0.34574,31.4216 0.69599,33.6901 6.11123,39.5806 5.55596,6.0436 19.63372,8.163 28.24364,4.2521 z m -154.54137,28.2758 c -13.7424,-3.6787 -23.72444,-11.9226 -29.98298,-24.7623 -6.32724,-12.9807 -7.51702,-20.9157 -7.51702,-50.1339 0,-29.2181 1.18978,-37.1531 7.51702,-50.1338 6.98146,-14.3228 18.84131,-23.0497 35.40639,-26.0533 12.89504,-2.3381 29.80771,-0.2966 39.8081,4.8052 5.51462,2.8134 11.34212,9.0001 12.11432,12.8611 1.55979,7.799 -3.48375,15.1926 -11.2598,16.5063 -3.3083,0.5589 -5.3433,0.059 -12.00787,-2.9502 -9.98324,-4.5075 -15.90908,-5.3077 -23.32998,-3.1504 -6.84388,1.9895 -12.90474,8.2842 -15.41663,16.0112 -2.47275,7.6067 -3.11188,49.128 -0.91701,59.5739 3.09686,14.7386 9.88123,21.03 22.67764,21.03 8.09343,0 11.33194,-1.0849 15.63898,-5.2392 3.76691,-3.6333 4.90224,-6.7527 5.82735,-16.0108 l 0.67448,-6.75 h -7.88209 c -9.92059,0 -13.93402,-1.8886 -17.15751,-8.0739 -2.71147,-5.2029 -2.36813,-10.4675 0.99023,-15.1839 3.54168,-4.9739 6.93792,-5.7422 25.38313,-5.7422 26.4458,0 27.43325,0.9596 27.43325,26.658 0,18.0807 -0.98929,24.2327 -5.47718,34.0601 -4.85209,10.625 -15.99366,19.3463 -29.06437,22.7507 -7.53805,1.9635 -26.00196,1.9233 -33.45845,-0.073 z m 35.10434,-3.3515 c 11.00711,-3.4258 19.70064,-10.6671 24.66477,-20.5447 4.0187,-7.9963 5.3663,-14.7001 5.94311,-29.5647 0.6406,-16.5086 -0.14072,-20.4351 -4.8557,-24.4025 -2.96298,-2.4932 -3.27569,-2.5328 -20.02895,-2.5328 -18.63866,0 -20.9677,0.5815 -24.19203,6.0399 -2.80481,4.7481 -2.12481,8.7062 2.24681,13.0778 l 3.88236,3.8823 h 9.23395 9.23395 l -0.40034,9.75 c -0.49023,11.9392 -2.8443,16.9961 -9.82152,21.0981 -3.98159,2.3408 -5.56656,2.6511 -13.51075,2.6448 -7.38683,-0.01 -9.75139,-0.4075 -13.19207,-2.2408 -11.511,-6.1332 -14.91478,-19.2523 -14.02532,-54.0574 0.57607,-22.5422 1.58853,-28.2169 6.43206,-36.0511 2.00604,-3.2447 4.39402,-5.3821 8.30077,-7.4298 5.07595,-2.6606 6.15508,-2.8485 14.48456,-2.5231 7.72814,0.302 9.91646,0.808 15.48511,3.5805 3.56681,1.7759 7.52666,3.2288 8.79966,3.2288 5.60352,0 11.22464,-5.6169 11.20864,-11.2003 -0.0276,-9.6448 -18.25022,-18.7649 -37.49341,-18.7649 -26.07183,0 -43.14664,13.4465 -50.11408,39.4652 -2.73131,10.1997 -2.78432,58.1718 -0.077,69.7082 4.29042,18.2825 14.66895,30.9626 29.72387,36.3157 10.616,3.7747 26.90108,3.9974 38.07157,0.5208 z m -284.104339,2.8094 c -4.14445,-1.2131 -6.60509,-3.2566 -8.85238,-7.3517 -1.48247,-2.7014 -1.64762,-9.5177 -1.64762,-68.0024 0,-63.2015 0.0553,-65.0939 2,-68.3954 4.51199,-7.6602 12.60954,-10.0067 20.42601,-5.9191 8.41147,4.3987 8.07399,1.6798 8.07399,65.0489 v 55.7656 H 114.5022 c 23.01505,0.001 26.67257,0.2171 29.67892,1.75 10.01543,5.107 10.67513,19.5989 1.16151,25.5156 -3.52011,2.1892 -4.2759,2.2366 -38.59043,2.4222 -21.534029,0.1164 -36.346599,-0.2049 -38.499999,-0.8352 z m 73.961359,-3.3341 c 6.50006,-3.3613 8.79406,-10.2247 5.52829,-16.54 -2.7141,-5.2485 -3.80851,-5.441 -33.98965,-5.98 l -27.999999,-0.5 -0.5,-57.8273 -0.5,-57.8273 -3.73531,-3.4227 c -4.44715,-4.0749 -9.4034,-4.55 -14.57487,-1.397 -6.30932,3.8467 -6.18998,2.4641 -6.18827,71.6922 10e-4,57.7682 0.14119,63.0617 1.75,66.2821 3.40162,6.8093 4.55452,6.9967 43.048109,6.9985 28.32916,10e-4 34.79785,-0.2561 37.1617,-1.4785 z m 36.20796,3.5113 c -4.37825,-1.0669 -8.93786,-5.5388 -10.17007,-9.9744 -0.60166,-2.1658 -0.99028,-27.8193 -0.99367,-65.595 l -0.006,-62.0381 2.25,-4.4619 c 4.00269,-7.9376 4.11934,-7.9585 44.2656,-7.9603 40.25901,0 40.1425,-0.024 44.32702,8.2889 1.85877,3.6925 2.19924,5.5023 1.64844,8.7625 -0.88222,5.2218 -5.5285,10.5854 -10.32333,11.9172 -2.01725,0.5603 -14.35523,1.0212 -27.41773,1.0243 l -23.75,0.01 v 15.5 15.5 h 23.35212 c 22.58978,0 23.46304,0.074 26.75,2.2632 10.3012,6.8613 8.08676,22.3699 -3.65982,25.6312 -2.28258,0.6337 -12.88864,1.0968 -25.1923,1.1001 l -21.25,0.01 v 15.5 15.5 h 26.03212 c 28.10572,0 30.24285,0.3297 34.90506,5.3849 3.41897,3.7071 4.02633,12.7568 1.16218,17.3166 -4.20588,6.6959 -4.72937,6.7796 -43.59936,6.97 -19.25,0.094 -36.4988,-0.1938 -38.33068,-0.6402 z m 74.37099,-3.6174 c 8.60919,-4.0853 9.31895,-15.4808 1.26987,-20.3882 -3.10971,-1.896 -4.99073,-2.0184 -31.06018,-2.0219 h -27.75 v -18.4511 -18.4511 l 25.07848,-0.2989 25.07847,-0.2989 3.42153,-3.7353 c 3.80051,-4.149 4.39684,-7.9779 1.97263,-12.6658 -2.99582,-5.7933 -4.18554,-6.0383 -30.73858,-6.3309 l -24.31253,-0.268 -0.27256,-18.25 -0.27256,-18.25 h 26.27256 c 24.46217,0 26.4974,-0.1408 29.53547,-1.9931 7.24411,-4.4168 8.03222,-13.3418 1.67131,-18.9267 l -3.50381,-3.0762 H 214.1217 c -38.41536,0 -38.68928,0.039 -42.23396,6.0399 -1.46814,2.4853 -1.63403,9.2523 -1.6208,66.1144 0.0113,48.6634 0.30443,63.9182 1.26457,65.8157 0.68741,1.3585 2.77232,3.496 4.63314,4.75 3.36152,2.2654 3.60844,2.28 38.3343,2.28 29.83971,0 35.43981,-0.2319 38.29356,-1.5861 z m 23.32214,-200.2387 c -56.95599,-64.6935 -107.34754,-138.2545 -137.40728,-200.58573 -25.48254,-52.84003 -37.71799,-98.16844 -37.6792,-139.58942 0.0237,-25.2717 4.24458,-47.50896 13.17258,-69.39774 24.81924,-60.849302 78.53245,-103.040652 144.1423,-113.222752 13.82648,-2.14576 40.03316,-2.13918 53.90882,0.0135 61.24859,9.50228 112.33936,47.02988 139.01029,102.106962 23.30101,48.11797 24.54008,101.0978 3.90206,166.84273 -23.52323,74.93615 -80.98694,166.44025 -157.25332,250.40725 -6.11961,6.7375 -11.80879,12.2163 -12.64263,12.1751 -0.83384,-0.041 -4.95297,-3.9787 -9.15362,-8.75 z m 22.55081,-7.9252 c 38.22093,-42.1287 77.72864,-94.9491 104.52791,-139.75 10.79803,-18.0512 28.26414,-52.14232 35.86357,-69.99995 C 466.1064,281.33229 473.71154,224.95792 461.682,177.18273 445.73795,113.8611 394.68278,62.353538 331.96814,46.319478 c -14.40193,-3.68209 -23.82044,-5.01141 -39.71594,-5.60548 -42.08149,-1.57273 -79.46803,9.6776 -114.36576,34.41488 -11.05753,7.83814 -32.6413,29.636062 -40.86054,41.265962 -7.95244,11.25238 -18.1752,30.7442 -23.07643,44 -4.0679,11.00198 -8.04714,28.25476 -9.76677,42.34572 -1.60706,13.16862 -0.6641,39.75166 1.9584,55.20891 11.5973,68.35568 52.05595,148.93832 120.21985,239.44532 21.09848,28.0143 56.81284,71 58.98977,71 0.4621,0 6.45373,-6.1875 13.31474,-13.75 z M 257.2522,346.42795 c -35.14708,-7.5511 -66.50636,-30.84244 -83.86511,-62.28876 -2.27419,-4.11981 -4.13489,-8.45165 -4.13489,-9.6263 v -2.13573 l 52.75,0.25884 52.75,0.25884 0.26203,37.75 0.26202,37.75 -4.76202,-0.0704 c -2.61912,-0.0387 -8.58703,-0.8921 -13.26203,-1.89649 z m 15,-35.53311 v -35.5 h -50 c -27.5,0 -50,0.37817 -50,0.84039 0,0.46221 2.19318,4.4895 4.87374,8.94953 15.89075,26.43975 39.63106,45.71671 68.01185,55.22515 7.33032,2.45588 20.8361,5.53421 25.86441,5.89519 0.97821,0.0702 1.25,-7.62907 1.25,-35.41026 z m 26.23797,-0.25 0.26203,-37.75 h 3.5 3.5 l 0.26419,36.5 c 0.24194,33.42637 0.12058,36.60526 -1.44113,37.75 -0.93793,0.6875 -2.74972,1.25 -4.02621,1.25 h -2.3209 z m 4.76203,-0.25 c 0,-30.44444 -0.19524,-35 -1.5,-35 -1.30476,0 -1.5,4.55556 -1.5,35 0,30.44444 0.19524,35 1.5,35 1.30476,0 1.5,-4.55556 1.5,-35 z m 7.5918,35.14853 c -0.96674,-1.56421 33.17193,-115.814 35.89501,-120.12764 1.39966,-2.2172 4.43778,-5.40251 6.75139,-7.07848 l 4.20656,-3.04722 -32.47238,0.30241 c -31.06009,0.28925 -32.64635,0.39627 -36.47238,2.46082 -4.25964,2.29852 -8.05971,5.98656 -11.12055,10.79271 -1.55343,2.43921 -1.96618,5.56159 -2.37945,18 l -0.5,15.04887 -55.21029,0.25845 c -52.78785,0.24711 -55.25363,0.17749 -56.19779,-1.5867 -0.54312,-1.01482 -1.97366,-6.53113 -3.17897,-12.25844 -3.73752,-17.75964 -2.92949,-41.28332 2.05375,-59.78965 l 1.11039,-4.12366 79.21145,0.0379 79.21146,0.0379 2.76126,3.99122 c 7.56565,10.93562 24.33733,14.67032 35.34097,7.8697 l 3.34231,-2.06566 -3.36045,-4.88524 c -4.1595,-6.04684 -6.04595,-13.44663 -5.14993,-20.20111 0.70974,-5.35031 4.34387,-13.52578 6.98783,-15.72007 2.3023,-1.91073 2.02703,-2.43929 -2.67199,-5.1306 -5.88201,-3.36885 -18.2274,-3.47287 -24.38445,-0.20545 -8.23929,4.37241 -12.93347,10.7626 -14.89115,20.27131 l -1.13236,5.5 -74.69996,0.25637 c -63.40555,0.21761 -74.78148,0.0439 -75.23916,-1.14877 -1.43843,-3.74849 12.65869,-25.6289 24.27751,-37.68159 18.09383,-18.76948 40.27224,-31.18069 65.31957,-36.553362 10.72076,-2.29961 38.94547,-2.57675 49.5,-0.48605 38.71581,7.669062 71.8598,32.841572 89.41599,67.910502 18.08278,36.12079 17.8465,78.73849 -0.63492,114.52192 -14.97753,28.99926 -41.88472,52.07932 -72.28107,62.0002 -10.02386,3.27163 -12.77593,3.85235 -13.4082,2.82931 z m 14.9082,-5.91648 c 29.66417,-10.52359 55.57975,-33.57332 69.36996,-61.69876 8.0937,-16.50727 11.79833,-30.44029 12.83489,-48.27164 l 0.59517,-10.23835 -3.51558,-1.4689 c -2.63376,-1.10045 -8.4014,-1.50629 -22.99409,-1.61796 -16.62537,-0.12722 -19.9774,0.10263 -22.88443,1.56921 -4.286,2.16225 -9.63742,7.15591 -11.51954,10.74941 -0.79363,1.51528 -8.6241,27.12898 -17.40103,56.91932 -8.77693,29.79035 -16.2251,55.00566 -16.55149,56.03402 -0.51399,1.61942 -0.21457,1.77853 2.23635,1.18835 1.55638,-0.37477 5.97979,-1.79889 9.82979,-3.1647 z m -53.5,-91.05055 c 0,-7.51366 0.53816,-13.63069 1.47747,-16.79368 1.93416,-6.51303 7.65875,-13.07669 13.96692,-16.01412 l 5.05561,-2.35416 54.28212,-0.01 c 45.75436,-0.008 54.84032,0.22346 57.8353,1.47484 l 3.55318,1.48462 -0.54187,-3.73462 c -2.70339,-18.63215 -2.65617,-18.47323 -4.97848,-16.75724 -5.9816,4.41987 -11.07901,6.00632 -19.15025,5.96008 -6.66474,-0.0382 -8.86573,-0.49325 -13.18689,-2.7265 l -5.18688,-2.68068 -5.26974,2.73487 c -4.47355,2.32166 -6.49477,2.73486 -13.37781,2.73486 -7.05403,0 -8.87964,-0.39387 -14.04337,-3.0298 -4.00998,-2.04697 -7.07006,-4.56097 -9.43345,-7.75 l -3.49814,-4.71997 h -77.09357 -77.09357 l -1.11926,3.75 c -4.82663,16.17132 -5.40077,43.53766 -1.26122,60.11574 1.14891,4.60115 2.33485,8.76365 2.63543,9.25 0.30551,0.49433 23.89172,0.88426 53.48749,0.88426 h 52.94098 z m 122,-51.26241 c 2.475,-1.12035 5.70584,-3.18932 7.17964,-4.59772 l 2.67963,-2.56073 -3.04298,-8.63032 c -1.67364,-4.74668 -4.17761,-10.88032 -5.56438,-13.63032 -3.07209,-6.09204 -11.86576,-19.93464 -13.55355,-21.33538 -1.77688,-1.47467 -10.48744,1.70826 -15.46621,5.65151 -15.65927,12.40237 -10.73407,38.88811 8.50837,45.75456 5.62102,2.00579 14.01639,1.72175 19.25948,-0.6516 z m -76.99023,-29.16909 c 0.0133,-4.42021 3.95666,-12.56259 8.08202,-16.68794 8.81211,-8.81211 23.67346,-11.0956 34.81505,-5.34943 4.98213,2.56948 6.11893,2.83303 7.2672,1.68475 0.74867,-0.74866 3.74925,-2.17292 6.66796,-3.16502 l 5.30676,-1.80382 -8.85333,-8.53463 C 346.08313,110.7049 317.10839,98.936988 283.7522,99.037328 c -32.61022,0.0981 -60.53277,11.276622 -84.07712,33.659472 -11.50259,10.93514 -18.21048,19.43706 -24.41757,30.94804 l -4.17904,7.75 h 73.08686 73.08687 l 0.01,-3.25 z"
       id="path909" />
  </g>
</svg>
